<svg width="8" height="12" viewBox="0 0 8 12" fill="none" xmlns="http://www.w3.org/2000/svg">
<path fill-rule="evenodd" clip-rule="evenodd" d="M1.06524 0.440239C1.10588 0.399496 1.15416 0.367171 1.20731 0.345115C1.26046 0.32306 1.31744 0.311707 1.37499 0.311707C1.43253 0.311707 1.48952 0.32306 1.54267 0.345115C1.59582 0.367171 1.6441 0.399496 1.68474 0.440239L6.93474 5.69024C6.97548 5.73088 7.00781 5.77916 7.02986 5.83231C7.05192 5.88546 7.06327 5.94244 7.06327 5.99999C7.06327 6.05753 7.05192 6.11452 7.02986 6.16767C7.00781 6.22082 6.97548 6.2691 6.93474 6.30974L1.68474 11.5597C1.60259 11.6419 1.49117 11.688 1.37499 11.688C1.25881 11.688 1.14739 11.6419 1.06524 11.5597C0.983088 11.4776 0.936936 11.3662 0.936936 11.25C0.936936 11.1338 0.983088 11.0224 1.06524 10.9402L6.00636 5.99999L1.06524 1.05974C1.0245 1.0191 0.99217 0.97082 0.970115 0.917668C0.948059 0.864516 0.936707 0.807535 0.936707 0.749989C0.936707 0.692442 0.948059 0.635461 0.970115 0.582309C0.99217 0.529157 1.0245 0.480879 1.06524 0.440239Z" fill="#7B8794"/>
</svg>
