<svg width="16" height="16" viewBox="0 0 16 16" fill="none" xmlns="http://www.w3.org/2000/svg">
<g clip-path="url(#clip0_130_19590)">
<path fill-rule="evenodd" clip-rule="evenodd" d="M1.14604 4.8539C1.09948 4.80745 1.06253 4.75228 1.03733 4.69153C1.01212 4.63079 0.999146 4.56567 0.999146 4.4999C0.999146 4.43413 1.01212 4.36901 1.03733 4.30827C1.06253 4.24752 1.09948 4.19235 1.14604 4.1459L5.14604 0.145899C5.23993 0.0520125 5.36726 -0.000732422 5.50004 -0.000732422C5.63281 -0.000732422 5.76015 0.0520125 5.85404 0.145899C5.94793 0.239786 6.00067 0.367123 6.00067 0.499899C6.00067 0.632675 5.94793 0.760013 5.85404 0.853899L2.70704 3.9999H12.5C13.1631 3.9999 13.799 4.26329 14.2678 4.73213C14.7366 5.20097 15 5.83686 15 6.4999V14.4999C15 14.6325 14.9474 14.7597 14.8536 14.8535C14.7598 14.9472 14.6326 14.9999 14.5 14.9999C14.3674 14.9999 14.2403 14.9472 14.1465 14.8535C14.0527 14.7597 14 14.6325 14 14.4999V6.4999C14 6.10207 13.842 5.72054 13.5607 5.43924C13.2794 5.15793 12.8979 4.9999 12.5 4.9999H2.70704L5.85404 8.1459C5.90053 8.19239 5.9374 8.24758 5.96256 8.30832C5.98772 8.36905 6.00067 8.43416 6.00067 8.4999C6.00067 8.56564 5.98772 8.63074 5.96256 8.69148C5.9374 8.75222 5.90053 8.80741 5.85404 8.8539C5.80755 8.90039 5.75236 8.93726 5.69162 8.96242C5.63088 8.98758 5.56578 9.00053 5.50004 9.00053C5.4343 9.00053 5.36919 8.98758 5.30846 8.96242C5.24772 8.93726 5.19253 8.90039 5.14604 8.8539L1.14604 4.8539Z" fill="#D955C3"/>
</g>
<defs>
<clipPath id="clip0_130_19590">
<rect width="16" height="16" fill="white"/>
</clipPath>
</defs>
</svg>
