<svg width="15" height="14" viewBox="0 0 15 14" fill="none" xmlns="http://www.w3.org/2000/svg">
<path fill-rule="evenodd" clip-rule="evenodd" d="M3.19225 1.44006C3.23289 1.39931 3.28117 1.36699 3.33432 1.34493C3.38748 1.32288 3.44446 1.31152 3.502 1.31152C3.55955 1.31152 3.61653 1.32288 3.66968 1.34493C3.72283 1.36699 3.77111 1.39931 3.81175 1.44006L9.06175 6.69006C9.1025 6.7307 9.13482 6.77897 9.15688 6.83213C9.17893 6.88528 9.19028 6.94226 9.19028 6.99981C9.19028 7.05735 9.17893 7.11433 9.15688 7.16748C9.13482 7.22064 9.1025 7.26892 9.06175 7.30956L3.81175 12.5596C3.7296 12.6417 3.61818 12.6879 3.502 12.6879C3.38582 12.6879 3.2744 12.6417 3.19225 12.5596C3.1101 12.4774 3.06395 12.366 3.06395 12.2498C3.06395 12.1336 3.1101 12.0222 3.19225 11.9401L8.13338 6.99981L3.19225 2.05956C3.15151 2.01892 3.11918 1.97064 3.09713 1.91748C3.07507 1.86433 3.06372 1.80735 3.06372 1.74981C3.06372 1.69226 3.07507 1.63528 3.09713 1.58213C3.11918 1.52897 3.15151 1.4807 3.19225 1.44006Z" fill="#122841"/>
<path fill-rule="evenodd" clip-rule="evenodd" d="M6.69225 1.44006C6.73289 1.39931 6.78117 1.36699 6.83432 1.34493C6.88748 1.32288 6.94446 1.31152 7.002 1.31152C7.05955 1.31152 7.11653 1.32288 7.16968 1.34493C7.22283 1.36699 7.27111 1.39931 7.31175 1.44006L12.5618 6.69006C12.6025 6.7307 12.6348 6.77897 12.6569 6.83213C12.6789 6.88528 12.6903 6.94226 12.6903 6.99981C12.6903 7.05735 12.6789 7.11433 12.6569 7.16748C12.6348 7.22064 12.6025 7.26892 12.5618 7.30956L7.31175 12.5596C7.2296 12.6417 7.11818 12.6879 7.002 12.6879C6.88582 12.6879 6.7744 12.6417 6.69225 12.5596C6.6101 12.4774 6.56395 12.366 6.56395 12.2498C6.56395 12.1336 6.6101 12.0222 6.69225 11.9401L11.6334 6.99981L6.69225 2.05956C6.65151 2.01892 6.61918 1.97064 6.59713 1.91748C6.57507 1.86433 6.56372 1.80735 6.56372 1.74981C6.56372 1.69226 6.57507 1.63528 6.59713 1.58213C6.61918 1.52897 6.65151 1.4807 6.69225 1.44006Z" fill="#122841"/>
</svg>
