<svg width="15" height="14" viewBox="0 0 15 14" fill="none" xmlns="http://www.w3.org/2000/svg">
<path fill-rule="evenodd" clip-rule="evenodd" d="M7.31175 1.44006C7.3525 1.4807 7.38482 1.52897 7.40688 1.58213C7.42893 1.63528 7.44028 1.69226 7.44028 1.74981C7.44028 1.80735 7.42893 1.86433 7.40688 1.91748C7.38482 1.97064 7.3525 2.01892 7.31175 2.05956L2.37063 6.99981L7.31175 11.9401C7.3939 12.0222 7.44005 12.1336 7.44005 12.2498C7.44005 12.366 7.3939 12.4774 7.31175 12.5596C7.2296 12.6417 7.11818 12.6879 7.002 12.6879C6.88582 12.6879 6.7744 12.6417 6.69225 12.5596L1.44225 7.30956C1.40151 7.26892 1.36918 7.22064 1.34713 7.16748C1.32507 7.11433 1.31372 7.05735 1.31372 6.99981C1.31372 6.94226 1.32507 6.88528 1.34713 6.83213C1.36918 6.77897 1.40151 6.7307 1.44225 6.69006L6.69225 1.44006C6.73289 1.39931 6.78117 1.36699 6.83432 1.34493C6.88748 1.32288 6.94446 1.31152 7.002 1.31152C7.05955 1.31152 7.11653 1.32288 7.16968 1.34493C7.22283 1.36699 7.27111 1.39931 7.31175 1.44006Z" fill="#122841"/>
<path fill-rule="evenodd" clip-rule="evenodd" d="M10.8118 1.44006C10.8525 1.4807 10.8848 1.52897 10.9069 1.58213C10.9289 1.63528 10.9403 1.69226 10.9403 1.74981C10.9403 1.80735 10.9289 1.86433 10.9069 1.91748C10.8848 1.97064 10.8525 2.01892 10.8118 2.05956L5.87063 6.99981L10.8118 11.9401C10.8524 11.9807 10.8847 12.029 10.9067 12.0822C10.9287 12.1353 10.9401 12.1923 10.9401 12.2498C10.9401 12.3073 10.9287 12.3643 10.9067 12.4174C10.8847 12.4706 10.8524 12.5189 10.8118 12.5596C10.7711 12.6002 10.7228 12.6325 10.6696 12.6545C10.6165 12.6765 10.5595 12.6879 10.502 12.6879C10.4445 12.6879 10.3875 12.6765 10.3344 12.6545C10.2812 12.6325 10.2329 12.6002 10.1923 12.5596L4.94225 7.30956C4.90151 7.26892 4.86918 7.22064 4.84713 7.16748C4.82507 7.11433 4.81372 7.05735 4.81372 6.99981C4.81372 6.94226 4.82507 6.88528 4.84713 6.83213C4.86918 6.77897 4.90151 6.7307 4.94225 6.69006L10.1923 1.44006C10.2329 1.39931 10.2812 1.36699 10.3343 1.34493C10.3875 1.32288 10.4445 1.31152 10.502 1.31152C10.5595 1.31152 10.6165 1.32288 10.6697 1.34493C10.7228 1.36699 10.7711 1.39931 10.8118 1.44006Z" fill="#122841"/>
</svg>
