<svg width="15" height="14" viewBox="0 0 15 14" fill="none" xmlns="http://www.w3.org/2000/svg">
<path fill-rule="evenodd" clip-rule="evenodd" d="M4.06725 1.44006C4.10789 1.39931 4.15617 1.36699 4.20932 1.34493C4.26248 1.32288 4.31946 1.31152 4.377 1.31152C4.43455 1.31152 4.49153 1.32288 4.54468 1.34493C4.59783 1.36699 4.64611 1.39931 4.68675 1.44006L9.93675 6.69006C9.9775 6.7307 10.0098 6.77897 10.0319 6.83213C10.0539 6.88528 10.0653 6.94226 10.0653 6.99981C10.0653 7.05735 10.0539 7.11433 10.0319 7.16748C10.0098 7.22064 9.9775 7.26892 9.93675 7.30956L4.68675 12.5596C4.6046 12.6417 4.49318 12.6879 4.377 12.6879C4.26082 12.6879 4.1494 12.6417 4.06725 12.5596C3.9851 12.4774 3.93895 12.366 3.93895 12.2498C3.93895 12.1336 3.9851 12.0222 4.06725 11.9401L9.00838 6.99981L4.06725 2.05956C4.02651 2.01892 3.99418 1.97064 3.97213 1.91748C3.95007 1.86433 3.93872 1.80735 3.93872 1.74981C3.93872 1.69226 3.95007 1.63528 3.97213 1.58213C3.99418 1.52897 4.02651 1.4807 4.06725 1.44006Z" fill="#122841"/>
</svg>
