<svg width="15" height="14" viewBox="0 0 15 14" fill="none" xmlns="http://www.w3.org/2000/svg">
<path fill-rule="evenodd" clip-rule="evenodd" d="M9.93675 1.44006C9.9775 1.4807 10.0098 1.52897 10.0319 1.58213C10.0539 1.63528 10.0653 1.69226 10.0653 1.74981C10.0653 1.80735 10.0539 1.86433 10.0319 1.91748C10.0098 1.97064 9.9775 2.01892 9.93675 2.05956L4.99563 6.99981L9.93675 11.9401C10.0189 12.0222 10.0651 12.1336 10.0651 12.2498C10.0651 12.366 10.0189 12.4774 9.93675 12.5596C9.8546 12.6417 9.74318 12.6879 9.627 12.6879C9.51082 12.6879 9.3994 12.6417 9.31725 12.5596L4.06725 7.30956C4.02651 7.26892 3.99418 7.22064 3.97213 7.16748C3.95007 7.11433 3.93872 7.05735 3.93872 6.99981C3.93872 6.94226 3.95007 6.88528 3.97213 6.83213C3.99418 6.77897 4.02651 6.7307 4.06725 6.69006L9.31725 1.44006C9.35789 1.39931 9.40617 1.36699 9.45932 1.34493C9.51248 1.32288 9.56946 1.31152 9.627 1.31152C9.68455 1.31152 9.74153 1.32288 9.79468 1.34493C9.84783 1.36699 9.89611 1.39931 9.93675 1.44006Z" fill="#122841"/>
</svg>
