<svg width="14" height="14" viewBox="0 0 14 14" fill="none" xmlns="http://www.w3.org/2000/svg">
<g clip-path="url(#clip0_317_26889)">
<path d="M14 7C14 10.3827 10.8658 13.125 7 13.125C6.3067 13.1259 5.61626 13.0359 4.94637 12.8573C4.43537 13.1163 3.262 13.6133 1.288 13.937C1.113 13.965 0.98 13.783 1.04912 13.6202C1.35888 12.8888 1.63888 11.914 1.72287 11.025C0.651 9.94875 0 8.54 0 7C0 3.61725 3.13425 0.875 7 0.875C10.8658 0.875 14 3.61725 14 7ZM3.9375 4.375C3.82147 4.375 3.71019 4.42109 3.62814 4.50314C3.54609 4.58519 3.5 4.69647 3.5 4.8125C3.5 4.92853 3.54609 5.03981 3.62814 5.12186C3.71019 5.20391 3.82147 5.25 3.9375 5.25H10.0625C10.1785 5.25 10.2898 5.20391 10.3719 5.12186C10.4539 5.03981 10.5 4.92853 10.5 4.8125C10.5 4.69647 10.4539 4.58519 10.3719 4.50314C10.2898 4.42109 10.1785 4.375 10.0625 4.375H3.9375ZM3.9375 6.5625C3.82147 6.5625 3.71019 6.60859 3.62814 6.69064C3.54609 6.77269 3.5 6.88397 3.5 7C3.5 7.11603 3.54609 7.22731 3.62814 7.30936C3.71019 7.39141 3.82147 7.4375 3.9375 7.4375H10.0625C10.1785 7.4375 10.2898 7.39141 10.3719 7.30936C10.4539 7.22731 10.5 7.11603 10.5 7C10.5 6.88397 10.4539 6.77269 10.3719 6.69064C10.2898 6.60859 10.1785 6.5625 10.0625 6.5625H3.9375ZM3.9375 8.75C3.82147 8.75 3.71019 8.79609 3.62814 8.87814C3.54609 8.96019 3.5 9.07147 3.5 9.1875C3.5 9.30353 3.54609 9.41481 3.62814 9.49686C3.71019 9.57891 3.82147 9.625 3.9375 9.625H7.4375C7.55353 9.625 7.66481 9.57891 7.74686 9.49686C7.82891 9.41481 7.875 9.30353 7.875 9.1875C7.875 9.07147 7.82891 8.96019 7.74686 8.87814C7.66481 8.79609 7.55353 8.75 7.4375 8.75H3.9375Z" fill="#9199B9"/>
</g>
<defs>
<clipPath id="clip0_317_26889">
<rect width="14" height="14" fill="white"/>
</clipPath>
</defs>
</svg>
