<svg width="16" height="14" viewBox="0 0 16 14" fill="none" xmlns="http://www.w3.org/2000/svg">
<path fill-rule="evenodd" clip-rule="evenodd" d="M2.00002 12.5001V6.00006H3.00002V12.5001C3.00002 12.6327 3.0527 12.7598 3.14647 12.8536C3.24024 12.9474 3.36741 13.0001 3.50002 13.0001H12.5C12.6326 13.0001 12.7598 12.9474 12.8536 12.8536C12.9473 12.7598 13 12.6327 13 12.5001V6.00006H14V12.5001C14 12.8979 13.842 13.2794 13.5607 13.5607C13.2794 13.842 12.8978 14.0001 12.5 14.0001H3.50002C3.1022 14.0001 2.72067 13.842 2.43936 13.5607C2.15806 13.2794 2.00002 12.8979 2.00002 12.5001ZM13 1.50006V5.00006L11 3.00006V1.50006C11 1.36745 11.0527 1.24028 11.1465 1.14651C11.2402 1.05274 11.3674 1.00006 11.5 1.00006H12.5C12.6326 1.00006 12.7598 1.05274 12.8536 1.14651C12.9473 1.24028 13 1.36745 13 1.50006Z" fill="#7B8794"/>
<path fill-rule="evenodd" clip-rule="evenodd" d="M7.29302 0.500062C7.48055 0.312591 7.73486 0.207275 8.00002 0.207275C8.26519 0.207275 8.51949 0.312591 8.70702 0.500062L15.354 7.14606C15.4479 7.23995 15.5007 7.36729 15.5007 7.50006C15.5007 7.63284 15.4479 7.76018 15.354 7.85406C15.2601 7.94795 15.1328 8.00069 15 8.00069C14.8672 8.00069 14.7399 7.94795 14.646 7.85406L8.00002 1.20706L1.35402 7.85406C1.26013 7.94795 1.1328 8.00069 1.00002 8.00069C0.867245 8.00069 0.739908 7.94795 0.646021 7.85406C0.552135 7.76018 0.49939 7.63284 0.49939 7.50006C0.49939 7.36729 0.552135 7.23995 0.646021 7.14606L7.29302 0.500062Z" fill="#7B8794"/>
</svg>
