<svg width="14" height="14" viewBox="0 0 14 14" fill="none" xmlns="http://www.w3.org/2000/svg">
<path d="M5.25171 4.8125C5.25171 5.1606 5.11343 5.49444 4.86729 5.74058C4.62115 5.98672 4.28731 6.125 3.93921 6.125C3.59111 6.125 3.25727 5.98672 3.01113 5.74058C2.76499 5.49444 2.62671 5.1606 2.62671 4.8125C2.62671 4.4644 2.76499 4.13056 3.01113 3.88442C3.25727 3.63828 3.59111 3.5 3.93921 3.5C4.28731 3.5 4.62115 3.63828 4.86729 3.88442C5.11343 4.13056 5.25171 4.4644 5.25171 4.8125Z" fill="#122841"/>
<path d="M1.75171 0.875C1.28758 0.875 0.842461 1.05937 0.514272 1.38756C0.186083 1.71575 0.00170898 2.16087 0.00170898 2.625V11.375C0.00170898 11.8391 0.186083 12.2842 0.514272 12.6124C0.842461 12.9406 1.28758 13.125 1.75171 13.125H12.2517C12.7158 13.125 13.161 12.9406 13.4891 12.6124C13.8173 12.2842 14.0017 11.8391 14.0017 11.375V2.625C14.0017 2.16087 13.8173 1.71575 13.4891 1.38756C13.161 1.05937 12.7158 0.875 12.2517 0.875H1.75171ZM12.2517 1.75C12.4838 1.75 12.7063 1.84219 12.8704 2.00628C13.0345 2.17038 13.1267 2.39294 13.1267 2.625V8.3125L9.82183 6.60887C9.73978 6.56777 9.64687 6.55351 9.55627 6.56812C9.46566 6.58272 9.38194 6.62545 9.31696 6.69025L6.07071 9.9365L3.74321 8.386C3.65917 8.33005 3.55838 8.30489 3.45791 8.31478C3.35743 8.32466 3.26348 8.36899 3.19196 8.44025L0.876709 10.5V2.625C0.876709 2.39294 0.968896 2.17038 1.13299 2.00628C1.29708 1.84219 1.51964 1.75 1.75171 1.75H12.2517Z" fill="#122841"/>
</svg>
