<svg width="16" height="16" viewBox="0 0 16 16" fill="none" xmlns="http://www.w3.org/2000/svg">
<g clip-path="url(#clip0_202_27410)">
<path d="M0.499756 9.9C0.632364 9.9 0.759541 9.95268 0.853309 10.0464C0.947077 10.1402 0.999756 10.2674 0.999756 10.4V12.9C0.999756 13.1652 1.10511 13.4196 1.29265 13.6071C1.48019 13.7946 1.73454 13.9 1.99976 13.9H13.9998C14.265 13.9 14.5193 13.7946 14.7069 13.6071C14.8944 13.4196 14.9998 13.1652 14.9998 12.9V10.4C14.9998 10.2674 15.0524 10.1402 15.1462 10.0464C15.24 9.95268 15.3671 9.9 15.4998 9.9C15.6324 9.9 15.7595 9.95268 15.8533 10.0464C15.9471 10.1402 15.9998 10.2674 15.9998 10.4V12.9C15.9998 13.4304 15.789 13.9391 15.414 14.3142C15.0389 14.6893 14.5302 14.9 13.9998 14.9H1.99976C1.46932 14.9 0.960615 14.6893 0.585542 14.3142C0.21047 13.9391 -0.000244141 13.4304 -0.000244141 12.9V10.4C-0.000244141 10.2674 0.0524343 10.1402 0.146202 10.0464C0.239971 9.95268 0.367148 9.9 0.499756 9.9Z" fill="#122841"/>
<path d="M7.64576 11.854C7.6922 11.9006 7.74738 11.9375 7.80812 11.9627C7.86887 11.9879 7.93399 12.0009 7.99976 12.0009C8.06552 12.0009 8.13064 11.9879 8.19139 11.9627C8.25213 11.9375 8.30731 11.9006 8.35376 11.854L11.3538 8.854C11.4476 8.76011 11.5004 8.63278 11.5004 8.5C11.5004 8.36722 11.4476 8.23989 11.3538 8.146C11.2599 8.05211 11.1325 7.99937 10.9998 7.99937C10.867 7.99937 10.7396 8.05211 10.6458 8.146L8.49976 10.293V1.5C8.49976 1.36739 8.44708 1.24021 8.35331 1.14645C8.25954 1.05268 8.13236 1 7.99976 1C7.86715 1 7.73997 1.05268 7.6462 1.14645C7.55243 1.24021 7.49976 1.36739 7.49976 1.5V10.293L5.35376 8.146C5.25987 8.05211 5.13253 7.99937 4.99976 7.99937C4.86698 7.99937 4.73964 8.05211 4.64576 8.146C4.55187 8.23989 4.49912 8.36722 4.49912 8.5C4.49912 8.63278 4.55187 8.76011 4.64576 8.854L7.64576 11.854Z" fill="#122841"/>
</g>
<defs>
<clipPath id="clip0_202_27410">
<rect width="16" height="16" fill="white" transform="translate(-0.000244141)"/>
</clipPath>
</defs>
</svg>
