<svg width="14" height="14" viewBox="0 0 14 14" fill="none" xmlns="http://www.w3.org/2000/svg">
<g clip-path="url(#clip0_31_17561)">
<path d="M11.2473 0.127606C11.1653 0.0455872 11.054 -0.000488281 10.938 -0.000488281C10.822 -0.000488281 10.7107 0.0455872 10.6287 0.127606L9.18757 1.56873L12.4312 4.81236L13.8723 3.37211C13.9131 3.33147 13.9454 3.28319 13.9674 3.23004C13.9895 3.17688 14.0009 3.1199 14.0009 3.06236C14.0009 3.00481 13.9895 2.94783 13.9674 2.89468C13.9454 2.84152 13.9131 2.79325 13.8723 2.75261L11.2473 0.127606ZM11.8126 5.43098L8.56895 2.18736L2.88145 7.87486H3.06257C3.17861 7.87486 3.28989 7.92095 3.37193 8.003C3.45398 8.08504 3.50007 8.19632 3.50007 8.31236V8.74986H3.93757C4.05361 8.74986 4.16489 8.79595 4.24693 8.878C4.32898 8.96004 4.37507 9.07132 4.37507 9.18736V9.62486H4.81257C4.92861 9.62486 5.03989 9.67095 5.12193 9.753C5.20398 9.83504 5.25007 9.94632 5.25007 10.0624V10.4999H5.68757C5.80361 10.4999 5.91489 10.5459 5.99693 10.628C6.07898 10.71 6.12507 10.8213 6.12507 10.9374V11.1185L11.8126 5.43098ZM5.27807 11.9655C5.25966 11.9165 5.25018 11.8647 5.25007 11.8124V11.3749H4.81257C4.69654 11.3749 4.58526 11.3288 4.50322 11.2467C4.42117 11.1647 4.37507 11.0534 4.37507 10.9374V10.4999H3.93757C3.82154 10.4999 3.71026 10.4538 3.62822 10.3717C3.54617 10.2897 3.50007 10.1784 3.50007 10.0624V9.62486H3.06257C2.94654 9.62486 2.83526 9.57876 2.75322 9.49672C2.67117 9.41467 2.62507 9.30339 2.62507 9.18736V8.74986H2.18757C2.13527 8.74977 2.0834 8.74029 2.03445 8.72186L1.87782 8.87761C1.83613 8.91959 1.80339 8.9696 1.78157 9.02461L0.0315745 13.3996C-0.000249879 13.4791 -0.00804044 13.5662 0.00916858 13.6501C0.0263776 13.734 0.0678294 13.811 0.128385 13.8715C0.188941 13.9321 0.265937 13.9736 0.349829 13.9908C0.433721 14.008 0.520819 14.0002 0.600324 13.9684L4.97532 12.2184C5.03033 12.1965 5.08034 12.1638 5.12232 12.1221L5.27807 11.9664V11.9655Z" fill="#122841"/>
</g>
<defs>
<clipPath id="clip0_31_17561">
<rect width="14" height="14" fill="white"/>
</clipPath>
</defs>
</svg>
