<svg width="57" height="56" viewBox="0 0 57 56" fill="none" xmlns="http://www.w3.org/2000/svg">
<path d="M6.625 13.9254L3.78234 11.6036C3.49726 11.9817 3.34327 12.4425 3.34375 12.9161V43.0839C3.34319 43.6392 3.55487 44.1736 3.93547 44.578L6.625 42.2515V13.9254Z" fill="#D4E1F4"/>
<path d="M6.625 13.9254L3.78234 11.6036C3.49726 11.9817 3.34327 12.4425 3.34375 12.9161V43.0839C3.34319 43.6392 3.55487 44.1736 3.93547 44.578L6.625 42.2515V13.9254Z" fill="#D4E1F4"/>
<path d="M6.29687 16.8676C6.12283 16.8676 5.95591 16.9368 5.83284 17.0598C5.70977 17.1829 5.64063 17.3498 5.64062 17.5239V18.0469C5.64063 18.2209 5.70977 18.3879 5.83284 18.5109C5.95591 18.634 6.12283 18.7031 6.29687 18.7031C6.47092 18.7031 6.63784 18.634 6.76091 18.5109C6.88398 18.3879 6.95312 18.2209 6.95312 18.0469V17.5243C6.95318 17.4381 6.93625 17.3527 6.9033 17.273C6.87034 17.1934 6.82201 17.121 6.76107 17.06C6.70012 16.999 6.62776 16.9506 6.54811 16.9176C6.46846 16.8846 6.38309 16.8676 6.29687 16.8676Z" fill="#8D939D"/>
<path d="M6.29688 19.777C6.12283 19.777 5.95591 19.8461 5.83284 19.9692C5.70977 20.0923 5.64063 20.2592 5.64062 20.4332V28.2188C5.64063 28.3928 5.70977 28.5597 5.83284 28.6828C5.95591 28.8059 6.12283 28.875 6.29688 28.875C6.47092 28.875 6.63784 28.8059 6.76091 28.6828C6.88398 28.5597 6.95312 28.3928 6.95312 28.2188V20.4332C6.95312 20.2592 6.88398 20.0923 6.76091 19.9692C6.63784 19.8461 6.47092 19.777 6.29688 19.777Z" fill="#8D939D"/>
<path d="M51.4688 10.0625H5.53125C4.77704 10.0625 4.05372 10.3621 3.52042 10.8954C2.98711 11.4287 2.6875 12.152 2.6875 12.9062V43.0938C2.6875 43.848 2.98711 44.5713 3.52042 45.1046C4.05372 45.6379 4.77704 45.9375 5.53125 45.9375H9.46875C9.6428 45.9375 9.80972 45.8684 9.93279 45.7453C10.0559 45.6222 10.125 45.4553 10.125 45.2812C10.125 45.1072 10.0559 44.9403 9.93279 44.8172C9.80972 44.6941 9.6428 44.625 9.46875 44.625H5.53125C5.35101 44.6231 5.17255 44.5892 5.00417 44.5248L23.8963 28.1822L23.0377 27.1883L4.08411 43.5811C4.02874 43.4213 4.00031 43.2535 4 43.0843V12.9157C4.00121 12.5074 4.16392 12.1163 4.45259 11.8276C4.74125 11.5389 5.13242 11.3762 5.54066 11.375H51.4688C51.8749 11.375 52.2643 11.5363 52.5515 11.8235C52.8387 12.1107 53 12.5001 53 12.9062V43.0843C52.9997 43.2532 52.9713 43.4209 52.9159 43.5805L33.9623 27.1871L33.1037 28.1798L51.9958 44.5248C51.8275 44.5892 51.649 44.6231 51.4688 44.625H14.0625C13.8885 44.625 13.7215 44.6941 13.5985 44.8172C13.4754 44.9403 13.4062 45.1072 13.4062 45.2812C13.4062 45.4553 13.4754 45.6222 13.5985 45.7453C13.7215 45.8684 13.8885 45.9375 14.0625 45.9375H51.4688C52.223 45.9375 52.9463 45.6379 53.4796 45.1046C54.0129 44.5713 54.3125 43.848 54.3125 43.0938V12.9062C54.3125 12.152 54.0129 11.4287 53.4796 10.8954C52.9463 10.3621 52.223 10.0625 51.4688 10.0625Z" fill="#8D939D"/>
<path d="M6.29687 16.8676C6.12283 16.8676 5.95591 16.9368 5.83284 17.0598C5.70977 17.1829 5.64063 17.3498 5.64062 17.5239V18.0469C5.64063 18.2209 5.70977 18.3879 5.83284 18.5109C5.95591 18.634 6.12283 18.7031 6.29687 18.7031C6.47092 18.7031 6.63784 18.634 6.76091 18.5109C6.88398 18.3879 6.95312 18.2209 6.95312 18.0469V17.5243C6.95318 17.4381 6.93625 17.3527 6.9033 17.273C6.87034 17.1934 6.82201 17.121 6.76107 17.06C6.70012 16.999 6.62776 16.9506 6.54811 16.9176C6.46846 16.8846 6.38309 16.8676 6.29687 16.8676V16.8676Z" fill="#8D939D"/>
<path d="M6.29688 19.777C6.12283 19.777 5.95591 19.8461 5.83284 19.9692C5.70977 20.0923 5.64063 20.2592 5.64062 20.4332V28.2188C5.64063 28.3928 5.70977 28.5597 5.83284 28.6828C5.95591 28.8059 6.12283 28.875 6.29688 28.875C6.47092 28.875 6.63784 28.8059 6.76091 28.6828C6.88398 28.5597 6.95312 28.3928 6.95312 28.2188V20.4332C6.95312 20.2592 6.88398 20.0923 6.76091 19.9692C6.63784 19.8461 6.47092 19.777 6.29688 19.777V19.777Z" fill="#8D939D"/>
<path d="M51.4688 10.0625H5.53125C4.77704 10.0625 4.05372 10.3621 3.52042 10.8954C2.98711 11.4287 2.6875 12.152 2.6875 12.9062V43.0938C2.6875 43.848 2.98711 44.5713 3.52042 45.1046C4.05372 45.6379 4.77704 45.9375 5.53125 45.9375H9.46875C9.6428 45.9375 9.80972 45.8684 9.93279 45.7453C10.0559 45.6222 10.125 45.4553 10.125 45.2812C10.125 45.1072 10.0559 44.9403 9.93279 44.8172C9.80972 44.6941 9.6428 44.625 9.46875 44.625H5.53125C5.35101 44.6231 5.17255 44.5892 5.00417 44.5248L23.8963 28.1822L23.0377 27.1883L4.08411 43.5811C4.02874 43.4213 4.00031 43.2535 4 43.0843V12.9157C4.00121 12.5074 4.16392 12.1163 4.45259 11.8276C4.74125 11.5389 5.13242 11.3762 5.54066 11.375H51.4688C51.8749 11.375 52.2643 11.5363 52.5515 11.8235C52.8387 12.1107 53 12.5001 53 12.9062V43.0843C52.9997 43.2532 52.9713 43.4209 52.9159 43.5805L33.9623 27.1871L33.1037 28.1798L51.9958 44.5248C51.8275 44.5892 51.649 44.6231 51.4688 44.625H14.0625C13.8885 44.625 13.7215 44.6941 13.5985 44.8172C13.4754 44.9403 13.4062 45.1072 13.4062 45.2812C13.4062 45.4553 13.4754 45.6222 13.5985 45.7453C13.7215 45.8684 13.8885 45.9375 14.0625 45.9375H51.4688C52.223 45.9375 52.9463 45.6379 53.4796 45.1046C54.0129 44.5713 54.3125 43.848 54.3125 43.0938V12.9062C54.3125 12.152 54.0129 11.4287 53.4796 10.8954C52.9463 10.3621 52.223 10.0625 51.4688 10.0625V10.0625Z" fill="#8D939D"/>
<path d="M52.2171 11.574L28.5 30.9473L4.78291 11.574C4.58534 11.6866 4.41499 11.8414 4.28396 12.0272C4.15293 12.2131 4.06442 12.4255 4.02472 12.6495L28.0844 32.3029C28.2016 32.3987 28.3482 32.451 28.4996 32.451C28.6509 32.451 28.7976 32.3987 28.9147 32.3029L52.9753 12.6495C52.9356 12.4255 52.8471 12.2131 52.716 12.0272C52.585 11.8414 52.4147 11.6866 52.2171 11.574Z" fill="#D955C3"/>
<path d="M52.2171 11.574L28.5 30.9473L4.78291 11.574C4.58534 11.6866 4.41499 11.8414 4.28396 12.0272C4.15293 12.2131 4.06442 12.4255 4.02472 12.6495L28.0844 32.3029C28.2016 32.3987 28.3482 32.451 28.4996 32.451C28.6509 32.451 28.7976 32.3987 28.9147 32.3029L52.9753 12.6495C52.9356 12.4255 52.8471 12.2131 52.716 12.0272C52.585 11.8414 52.4147 11.6866 52.2171 11.574Z" fill="#D955C3"/>
</svg>
