<svg width="14" height="14" viewBox="0 0 14 14" fill="none" xmlns="http://www.w3.org/2000/svg">
<g clip-path="url(#clip0_317_26887)">
<path d="M10.5 0H3.5C3.03587 0 2.59075 0.184374 2.26256 0.512563C1.93437 0.840752 1.75 1.28587 1.75 1.75V12.25C1.75 12.7141 1.93437 13.1592 2.26256 13.4874C2.59075 13.8156 3.03587 14 3.5 14H10.5C10.9641 14 11.4092 13.8156 11.7374 13.4874C12.0656 13.1592 12.25 12.7141 12.25 12.25V1.75C12.25 1.28587 12.0656 0.840752 11.7374 0.512563C11.4092 0.184374 10.9641 0 10.5 0V0ZM4.375 3.5H9.625C9.74103 3.5 9.85231 3.54609 9.93436 3.62814C10.0164 3.71019 10.0625 3.82147 10.0625 3.9375C10.0625 4.05353 10.0164 4.16481 9.93436 4.24686C9.85231 4.32891 9.74103 4.375 9.625 4.375H4.375C4.25897 4.375 4.14769 4.32891 4.06564 4.24686C3.98359 4.16481 3.9375 4.05353 3.9375 3.9375C3.9375 3.82147 3.98359 3.71019 4.06564 3.62814C4.14769 3.54609 4.25897 3.5 4.375 3.5ZM3.9375 5.6875C3.9375 5.57147 3.98359 5.46019 4.06564 5.37814C4.14769 5.29609 4.25897 5.25 4.375 5.25H9.625C9.74103 5.25 9.85231 5.29609 9.93436 5.37814C10.0164 5.46019 10.0625 5.57147 10.0625 5.6875C10.0625 5.80353 10.0164 5.91481 9.93436 5.99686C9.85231 6.07891 9.74103 6.125 9.625 6.125H4.375C4.25897 6.125 4.14769 6.07891 4.06564 5.99686C3.98359 5.91481 3.9375 5.80353 3.9375 5.6875ZM4.375 7H9.625C9.74103 7 9.85231 7.04609 9.93436 7.12814C10.0164 7.21019 10.0625 7.32147 10.0625 7.4375C10.0625 7.55353 10.0164 7.66481 9.93436 7.74686C9.85231 7.82891 9.74103 7.875 9.625 7.875H4.375C4.25897 7.875 4.14769 7.82891 4.06564 7.74686C3.98359 7.66481 3.9375 7.55353 3.9375 7.4375C3.9375 7.32147 3.98359 7.21019 4.06564 7.12814C4.14769 7.04609 4.25897 7 4.375 7ZM4.375 8.75H7C7.11603 8.75 7.22731 8.79609 7.30936 8.87814C7.39141 8.96019 7.4375 9.07147 7.4375 9.1875C7.4375 9.30353 7.39141 9.41481 7.30936 9.49686C7.22731 9.57891 7.11603 9.625 7 9.625H4.375C4.25897 9.625 4.14769 9.57891 4.06564 9.49686C3.98359 9.41481 3.9375 9.30353 3.9375 9.1875C3.9375 9.07147 3.98359 8.96019 4.06564 8.87814C4.14769 8.79609 4.25897 8.75 4.375 8.75Z" fill="#9199B9"/>
</g>
<defs>
<clipPath id="clip0_317_26887">
<rect width="14" height="14" fill="white"/>
</clipPath>
</defs>
</svg>
