<svg width="7" height="18" viewBox="0 0 7 18" fill="none" xmlns="http://www.w3.org/2000/svg">
<path d="M2.74976 1.5C2.74976 1.83152 2.61806 2.14946 2.38364 2.38388C2.14922 2.6183 1.83128 2.75 1.49976 2.75C1.16824 2.75 0.850293 2.6183 0.615873 2.38388C0.381452 2.14946 0.249756 1.83152 0.249756 1.5C0.249756 1.16848 0.381452 0.850537 0.615873 0.616116C0.850293 0.381696 1.16824 0.25 1.49976 0.25C1.83128 0.25 2.14922 0.381696 2.38364 0.616116C2.61806 0.850537 2.74976 1.16848 2.74976 1.5ZM6.49976 1.5C6.49976 1.83152 6.36806 2.14946 6.13364 2.38388C5.89922 2.6183 5.58128 2.75 5.24976 2.75C4.91824 2.75 4.60029 2.6183 4.36587 2.38388C4.13145 2.14946 3.99976 1.83152 3.99976 1.5C3.99976 1.16848 4.13145 0.850537 4.36587 0.616116C4.60029 0.381696 4.91824 0.25 5.24976 0.25C5.58128 0.25 5.89922 0.381696 6.13364 0.616116C6.36806 0.850537 6.49976 1.16848 6.49976 1.5ZM2.74976 5.25C2.74976 5.58152 2.61806 5.89946 2.38364 6.13388C2.14922 6.3683 1.83128 6.5 1.49976 6.5C1.16824 6.5 0.850293 6.3683 0.615873 6.13388C0.381452 5.89946 0.249756 5.58152 0.249756 5.25C0.249756 4.91848 0.381452 4.60054 0.615873 4.36612C0.850293 4.1317 1.16824 4 1.49976 4C1.83128 4 2.14922 4.1317 2.38364 4.36612C2.61806 4.60054 2.74976 4.91848 2.74976 5.25ZM6.49976 5.25C6.49976 5.58152 6.36806 5.89946 6.13364 6.13388C5.89922 6.3683 5.58128 6.5 5.24976 6.5C4.91824 6.5 4.60029 6.3683 4.36587 6.13388C4.13145 5.89946 3.99976 5.58152 3.99976 5.25C3.99976 4.91848 4.13145 4.60054 4.36587 4.36612C4.60029 4.1317 4.91824 4 5.24976 4C5.58128 4 5.89922 4.1317 6.13364 4.36612C6.36806 4.60054 6.49976 4.91848 6.49976 5.25ZM2.74976 9C2.74976 9.33152 2.61806 9.64946 2.38364 9.88388C2.14922 10.1183 1.83128 10.25 1.49976 10.25C1.16824 10.25 0.850293 10.1183 0.615873 9.88388C0.381452 9.64946 0.249756 9.33152 0.249756 9C0.249756 8.66848 0.381452 8.35054 0.615873 8.11612C0.850293 7.8817 1.16824 7.75 1.49976 7.75C1.83128 7.75 2.14922 7.8817 2.38364 8.11612C2.61806 8.35054 2.74976 8.66848 2.74976 9ZM6.49976 9C6.49976 9.33152 6.36806 9.64946 6.13364 9.88388C5.89922 10.1183 5.58128 10.25 5.24976 10.25C4.91824 10.25 4.60029 10.1183 4.36587 9.88388C4.13145 9.64946 3.99976 9.33152 3.99976 9C3.99976 8.66848 4.13145 8.35054 4.36587 8.11612C4.60029 7.8817 4.91824 7.75 5.24976 7.75C5.58128 7.75 5.89922 7.8817 6.13364 8.11612C6.36806 8.35054 6.49976 8.66848 6.49976 9ZM2.74976 12.75C2.74976 13.0815 2.61806 13.3995 2.38364 13.6339C2.14922 13.8683 1.83128 14 1.49976 14C1.16824 14 0.850293 13.8683 0.615873 13.6339C0.381452 13.3995 0.249756 13.0815 0.249756 12.75C0.249756 12.4185 0.381452 12.1005 0.615873 11.8661C0.850293 11.6317 1.16824 11.5 1.49976 11.5C1.83128 11.5 2.14922 11.6317 2.38364 11.8661C2.61806 12.1005 2.74976 12.4185 2.74976 12.75ZM6.49976 12.75C6.49976 13.0815 6.36806 13.3995 6.13364 13.6339C5.89922 13.8683 5.58128 14 5.24976 14C4.91824 14 4.60029 13.8683 4.36587 13.6339C4.13145 13.3995 3.99976 13.0815 3.99976 12.75C3.99976 12.4185 4.13145 12.1005 4.36587 11.8661C4.60029 11.6317 4.91824 11.5 5.24976 11.5C5.58128 11.5 5.89922 11.6317 6.13364 11.8661C6.36806 12.1005 6.49976 12.4185 6.49976 12.75ZM2.74976 16.5C2.74976 16.8315 2.61806 17.1495 2.38364 17.3839C2.14922 17.6183 1.83128 17.75 1.49976 17.75C1.16824 17.75 0.850293 17.6183 0.615873 17.3839C0.381452 17.1495 0.249756 16.8315 0.249756 16.5C0.249756 16.1685 0.381452 15.8505 0.615873 15.6161C0.850293 15.3817 1.16824 15.25 1.49976 15.25C1.83128 15.25 2.14922 15.3817 2.38364 15.6161C2.61806 15.8505 2.74976 16.1685 2.74976 16.5ZM6.49976 16.5C6.49976 16.8315 6.36806 17.1495 6.13364 17.3839C5.89922 17.6183 5.58128 17.75 5.24976 17.75C4.91824 17.75 4.60029 17.6183 4.36587 17.3839C4.13145 17.1495 3.99976 16.8315 3.99976 16.5C3.99976 16.1685 4.13145 15.8505 4.36587 15.6161C4.60029 15.3817 4.91824 15.25 5.24976 15.25C5.58128 15.25 5.89922 15.3817 6.13364 15.6161C6.36806 15.8505 6.49976 16.1685 6.49976 16.5Z" fill="#7B8794"/>
</svg>
