<svg width="12" height="16" viewBox="0 0 12 16" fill="none" xmlns="http://www.w3.org/2000/svg">
<path d="M9.25096 0.0679535C9.34883 0.124692 9.42456 0.212943 9.4658 0.318291C9.50703 0.423639 9.51131 0.539855 9.47795 0.647953L7.67696 6.49995H11C11.0976 6.49991 11.1931 6.52847 11.2747 6.5821C11.3564 6.63574 11.4205 6.71209 11.4592 6.80175C11.4979 6.8914 11.5095 6.99043 11.4926 7.08661C11.4757 7.18278 11.4309 7.2719 11.364 7.34295L3.36396 15.843C3.28655 15.9253 3.18354 15.9789 3.07173 15.9952C2.95991 16.0115 2.84588 15.9894 2.74823 15.9326C2.65057 15.8757 2.57504 15.7875 2.53395 15.6822C2.49286 15.577 2.48863 15.4609 2.52196 15.353L4.32296 9.49995H0.999955C0.9023 9.49999 0.806771 9.47143 0.725161 9.4178C0.643551 9.36417 0.579432 9.28782 0.54072 9.19816C0.502008 9.10851 0.490398 9.00948 0.507322 8.9133C0.524246 8.81712 0.568964 8.72801 0.635955 8.65695L8.63595 0.156953C8.71327 0.0747526 8.81611 0.0211221 8.92777 0.00478201C9.03943 -0.011558 9.15333 0.0103533 9.25096 0.0669535V0.0679535ZM2.15696 8.49995H4.99996C5.0782 8.49994 5.15536 8.51829 5.22523 8.55353C5.29509 8.58877 5.35571 8.63991 5.4022 8.70285C5.4487 8.76578 5.47978 8.83875 5.49293 8.91588C5.50609 8.99302 5.50096 9.07216 5.47796 9.14695L4.10996 13.59L9.84196 7.49995H6.99996C6.92171 7.49997 6.84455 7.48162 6.77468 7.44638C6.70482 7.41114 6.6442 7.36 6.5977 7.29706C6.55121 7.23413 6.52013 7.16116 6.50698 7.08402C6.49382 7.00689 6.49895 6.92774 6.52196 6.85295L7.88996 2.40995L2.15696 8.49995Z" fill="#7B8794"/>
</svg>
