<svg width="14" height="14" viewBox="0 0 14 14" fill="none" xmlns="http://www.w3.org/2000/svg">
<path d="M2 3.5H12C12.5304 3.5 13.0391 3.71071 13.4142 4.08579C13.7893 4.46086 14 4.96957 14 5.5V8.5C14 9.03043 13.7893 9.53914 13.4142 9.91421C13.0391 10.2893 12.5304 10.5 12 10.5H2C1.46957 10.5 0.960859 10.2893 0.585786 9.91421C0.210714 9.53914 0 9.03043 0 8.5V5.5C0 4.96957 0.210714 4.46086 0.585786 4.08579C0.960859 3.71071 1.46957 3.5 2 3.5ZM2 4.5C1.73478 4.5 1.48043 4.60536 1.29289 4.79289C1.10536 4.98043 1 5.23478 1 5.5V8.5C1 8.76522 1.10536 9.01957 1.29289 9.20711C1.48043 9.39464 1.73478 9.5 2 9.5H12C12.2652 9.5 12.5196 9.39464 12.7071 9.20711C12.8946 9.01957 13 8.76522 13 8.5V5.5C13 5.23478 12.8946 4.98043 12.7071 4.79289C12.5196 4.60536 12.2652 4.5 12 4.5H2ZM0 1C0 0.867392 0.0526784 0.740215 0.146447 0.646447C0.240215 0.552678 0.367392 0.5 0.5 0.5H13.5C13.6326 0.5 13.7598 0.552678 13.8536 0.646447C13.9473 0.740215 14 0.867392 14 1C14 1.13261 13.9473 1.25979 13.8536 1.35355C13.7598 1.44732 13.6326 1.5 13.5 1.5H0.5C0.367392 1.5 0.240215 1.44732 0.146447 1.35355C0.0526784 1.25979 0 1.13261 0 1ZM0 13C0 12.8674 0.0526784 12.7402 0.146447 12.6464C0.240215 12.5527 0.367392 12.5 0.5 12.5H13.5C13.6326 12.5 13.7598 12.5527 13.8536 12.6464C13.9473 12.7402 14 12.8674 14 13C14 13.1326 13.9473 13.2598 13.8536 13.3536C13.7598 13.4473 13.6326 13.5 13.5 13.5H0.5C0.367392 13.5 0.240215 13.4473 0.146447 13.3536C0.0526784 13.2598 0 13.1326 0 13Z" fill="#7B8794"/>
</svg>
