<svg width="37" height="36" viewBox="0 0 37 36" fill="none" xmlns="http://www.w3.org/2000/svg">
<path d="M12.4791 33.1173V6.5332C12.4795 6.27223 12.5833 6.02203 12.7678 5.83749C12.9523 5.65296 13.2025 5.54914 13.4635 5.54883H12.0573C11.7963 5.54914 11.5461 5.65296 11.3616 5.83749C11.177 6.02203 11.0732 6.27223 11.0729 6.5332V33.1173C11.0732 33.3783 11.177 33.6285 11.3615 33.813C11.5461 33.9976 11.7963 34.1014 12.0573 34.1017H13.4635C13.2025 34.1014 12.9523 33.9976 12.7678 33.813C12.5832 33.6285 12.4794 33.3783 12.4791 33.1173Z" fill="#D4E1F4"/>
<path d="M29.75 4.70496H26.7709V2.88281C26.7703 2.39813 26.5775 1.93347 26.2348 1.59075C25.8921 1.24803 25.4274 1.05525 24.9427 1.05469H7.25C6.76532 1.05525 6.30066 1.24803 5.95794 1.59075C5.61522 1.93347 5.42243 2.39813 5.42188 2.88281V30.301C5.42243 30.7856 5.61522 31.2503 5.95794 31.593C6.30066 31.9357 6.76532 32.1285 7.25 32.1291H10.2291V33.1172C10.2297 33.6019 10.4225 34.0665 10.7652 34.4093C11.1079 34.752 11.5726 34.9448 12.0573 34.9453H27.3793C27.39 34.9453 27.4004 34.9444 27.4111 34.9438C27.4211 34.9445 27.4311 34.9453 27.4412 34.9453H27.4442C27.5026 34.9449 27.5603 34.9323 27.6135 34.9083C27.6668 34.8843 27.7145 34.8495 27.7535 34.806C27.7619 34.799 27.7704 34.792 27.7784 34.7844L31.4008 31.2931C31.4087 31.2855 31.4159 31.2771 31.4234 31.2691C31.4739 31.228 31.5141 31.1757 31.541 31.1163C31.5678 31.057 31.5805 30.9922 31.5781 30.9272C31.5781 30.9219 31.5771 30.9168 31.5767 30.9116C31.5774 30.9006 31.5784 30.8896 31.5784 30.8785V6.53309C31.5778 6.04836 31.385 5.58365 31.0422 5.24092C30.6995 4.8982 30.2347 4.70544 29.75 4.70496ZM7.25 31.2853C6.98901 31.2851 6.7388 31.1813 6.55425 30.9967C6.3697 30.8122 6.2659 30.5619 6.26562 30.301V2.88281C6.2659 2.62183 6.3697 2.37161 6.55425 2.18706C6.7388 2.00252 6.98901 1.89872 7.25 1.89844H24.9427C25.2037 1.89874 25.4539 2.00254 25.6385 2.18708C25.823 2.37162 25.9268 2.62183 25.9271 2.88281V4.70496H12.0573C11.5726 4.70552 11.1079 4.8983 10.7652 5.24102C10.4225 5.58374 10.2297 6.04841 10.2291 6.53309V31.2853H7.25ZM11.0729 33.1172V6.53309C11.0732 6.27211 11.177 6.02191 11.3616 5.83738C11.5461 5.65284 11.7963 5.54903 12.0573 5.54871H29.75C30.011 5.54901 30.2612 5.65281 30.4457 5.83736C30.6303 6.0219 30.7341 6.2721 30.7344 6.53309V30.5378L27.583 30.6597C27.5028 30.658 27.4232 30.6731 27.3492 30.704C27.2752 30.7349 27.2085 30.7809 27.1534 30.8391C27.0982 30.8973 27.0558 30.9664 27.029 31.042C27.0021 31.1175 26.9914 31.1979 26.9974 31.2778L27.0165 34.1016H12.0573C11.7963 34.1013 11.5461 33.9975 11.3615 33.8129C11.177 33.6284 11.0732 33.3782 11.0729 33.1172ZM27.8424 31.4938L30.0661 31.4078L27.8563 33.5376L27.8424 31.4938Z" fill="#8D939D"/>
<path d="M13.5157 19.8574H28.7752C28.8871 19.8574 28.9944 19.813 29.0735 19.7339C29.1526 19.6547 29.1971 19.5474 29.1971 19.4355C29.1971 19.3237 29.1526 19.2164 29.0735 19.1372C28.9944 19.0581 28.8871 19.0137 28.7752 19.0137H13.5157C13.4038 19.0137 13.2965 19.0581 13.2174 19.1372C13.1383 19.2164 13.0938 19.3237 13.0938 19.4355C13.0938 19.5474 13.1383 19.6547 13.2174 19.7339C13.2965 19.813 13.4038 19.8574 13.5157 19.8574Z" fill="#D955C3"/>
<path d="M13.5157 24.5972H28.7752C28.8871 24.5972 28.9944 24.5527 29.0735 24.4736C29.1526 24.3945 29.1971 24.2872 29.1971 24.1753C29.1971 24.0634 29.1526 23.9561 29.0735 23.877C28.9944 23.7979 28.8871 23.7534 28.7752 23.7534H13.5157C13.4038 23.7534 13.2965 23.7979 13.2174 23.877C13.1383 23.9561 13.0938 24.0634 13.0938 24.1753C13.0938 24.2872 13.1383 24.3945 13.2174 24.4736C13.2965 24.5527 13.4038 24.5972 13.5157 24.5972Z" fill="#D955C3"/>
<path d="M29.1971 28.915C29.1971 28.8032 29.1526 28.6958 29.0735 28.6167C28.9944 28.5376 28.8871 28.4932 28.7752 28.4932H13.5157C13.4038 28.4932 13.2965 28.5376 13.2174 28.6167C13.1383 28.6958 13.0938 28.8032 13.0938 28.915C13.0938 29.0269 13.1383 29.1342 13.2174 29.2134C13.2965 29.2925 13.4038 29.3369 13.5157 29.3369H28.7752C28.8871 29.3369 28.9944 29.2925 29.0735 29.2134C29.1526 29.1342 29.1971 29.0269 29.1971 28.915Z" fill="#D955C3"/>
<path d="M13.6563 15.6356H19.2954C19.4445 15.6355 19.5875 15.5762 19.6929 15.4707C19.7984 15.3653 19.8577 15.2223 19.8579 15.0731V9.43408C19.8577 9.28495 19.7984 9.14197 19.6929 9.03652C19.5875 8.93107 19.4445 8.87175 19.2954 8.87158H13.6563C13.5072 8.87175 13.3642 8.93107 13.2587 9.03652C13.1533 9.14197 13.094 9.28495 13.0938 9.43408V15.0731C13.094 15.2223 13.1533 15.3653 13.2587 15.4707C13.3642 15.5762 13.5072 15.6355 13.6563 15.6356ZM13.9376 9.71533H19.0141V14.7919H13.9376V9.71533Z" fill="#D955C3"/>
<path d="M21.8668 10.3779H28.7752C28.8871 10.3779 28.9944 10.3335 29.0735 10.2544C29.1526 10.1752 29.1971 10.0679 29.1971 9.95605C29.1971 9.84417 29.1526 9.73686 29.0735 9.65774C28.9944 9.57863 28.8871 9.53418 28.7752 9.53418H21.8668C21.755 9.53418 21.6477 9.57863 21.5685 9.65774C21.4894 9.73686 21.445 9.84417 21.445 9.95605C21.445 10.0679 21.4894 10.1752 21.5685 10.2544C21.6477 10.3335 21.755 10.3779 21.8668 10.3779Z" fill="#D955C3"/>
<path d="M21.8668 15.1182H28.7752C28.8871 15.1182 28.9944 15.0737 29.0735 14.9946C29.1526 14.9155 29.1971 14.8082 29.1971 14.6963C29.1971 14.5844 29.1526 14.4771 29.0735 14.398C28.9944 14.3189 28.8871 14.2744 28.7752 14.2744H21.8668C21.755 14.2744 21.6477 14.3189 21.5685 14.398C21.4894 14.4771 21.445 14.5844 21.445 14.6963C21.445 14.8082 21.4894 14.9155 21.5685 14.9946C21.6477 15.0737 21.755 15.1182 21.8668 15.1182Z" fill="#D955C3"/>
</svg>
