<svg width="14" height="14" viewBox="0 0 14 14" fill="none" xmlns="http://www.w3.org/2000/svg">
<g clip-path="url(#clip0_31_17536)">
<path d="M6.18445 0.636074C6.39707 -0.212676 7.60195 -0.212676 7.81545 0.636074L7.87757 0.886324C7.91392 1.03176 7.98853 1.16481 8.09365 1.27168C8.19877 1.37855 8.33057 1.45535 8.47538 1.49409C8.62019 1.53284 8.77274 1.53213 8.91718 1.49203C9.06162 1.45194 9.1927 1.37392 9.29682 1.26607L9.4762 1.08145C10.0843 0.452324 11.1282 1.0552 10.8876 1.89607L10.8176 2.14457C10.7764 2.28864 10.7744 2.44111 10.812 2.58617C10.8496 2.73123 10.9253 2.8636 11.0312 2.96956C11.1372 3.07552 11.2695 3.1512 11.4146 3.18877C11.5597 3.22633 11.7121 3.22441 11.8562 3.1832L12.1038 3.11232C12.9438 2.8717 13.5476 3.91557 12.9184 4.5237L12.7338 4.70307C12.626 4.80719 12.548 4.93828 12.5079 5.08272C12.4678 5.22716 12.4671 5.3797 12.5058 5.52452C12.5446 5.66933 12.6213 5.80113 12.7282 5.90625C12.8351 6.01137 12.9681 6.08598 13.1136 6.12232L13.3638 6.18445C14.2126 6.39707 14.2126 7.60195 13.3638 7.81545L13.1136 7.87757C12.9681 7.91392 12.8351 7.98853 12.7282 8.09365C12.6213 8.19877 12.5446 8.33057 12.5058 8.47538C12.4671 8.62019 12.4678 8.77274 12.5079 8.91718C12.548 9.06162 12.626 9.1927 12.7338 9.29682L12.9184 9.4762C13.5476 10.0843 12.9447 11.1282 12.1038 10.8876L11.8553 10.8176C11.7113 10.7764 11.5588 10.7744 11.4137 10.812C11.2687 10.8496 11.1363 10.9253 11.0303 11.0312C10.9244 11.1372 10.8487 11.2695 10.8111 11.4146C10.7736 11.5597 10.7755 11.7121 10.8167 11.8562L10.8876 12.1038C11.1282 12.9438 10.0843 13.5476 9.4762 12.9184L9.29682 12.7338C9.1927 12.626 9.06162 12.548 8.91718 12.5079C8.77274 12.4678 8.62019 12.4671 8.47538 12.5058C8.33057 12.5446 8.19877 12.6213 8.09365 12.7282C7.98853 12.8351 7.91392 12.9681 7.87757 13.1136L7.81545 13.3638C7.60282 14.2126 6.39795 14.2126 6.18445 13.3638L6.12232 13.1136C6.08598 12.9681 6.01137 12.8351 5.90625 12.7282C5.80113 12.6213 5.66933 12.5446 5.52452 12.5058C5.3797 12.4671 5.22716 12.4678 5.08272 12.5079C4.93828 12.548 4.80719 12.626 4.70307 12.7338L4.5237 12.9184C3.91557 13.5476 2.8717 12.9447 3.11232 12.1038L3.18232 11.8553C3.22346 11.7113 3.22536 11.559 3.18782 11.414C3.15029 11.2691 3.07469 11.1368 2.96886 11.0309C2.86302 10.9249 2.7308 10.8492 2.58587 10.8116C2.44094 10.7739 2.28859 10.7757 2.14457 10.8167L1.89607 10.8876C1.05607 11.1282 0.452324 10.0843 1.08145 9.4762L1.26607 9.29682C1.37392 9.1927 1.45194 9.06162 1.49203 8.91718C1.53213 8.77274 1.53284 8.62019 1.49409 8.47538C1.45535 8.33057 1.37855 8.19877 1.27168 8.09365C1.16481 7.98853 1.03176 7.91392 0.886324 7.87757L0.636074 7.81545C-0.212676 7.60282 -0.212676 6.39795 0.636074 6.18445L0.886324 6.12232C1.03176 6.08598 1.16481 6.01137 1.27168 5.90625C1.37855 5.80113 1.45535 5.66933 1.49409 5.52452C1.53284 5.3797 1.53213 5.22716 1.49203 5.08272C1.45194 4.93828 1.37392 4.80719 1.26607 4.70307L1.08145 4.5237C0.452324 3.91557 1.0552 2.8717 1.89607 3.11232L2.14457 3.18232C2.28855 3.22346 2.44091 3.22536 2.58586 3.18782C2.73082 3.15029 2.86311 3.07469 2.96904 2.96886C3.07496 2.86302 3.15067 2.7308 3.18833 2.58587C3.22598 2.44094 3.22421 2.28859 3.1832 2.14457L3.11232 1.89607C2.8717 1.05607 3.91557 0.452324 4.5237 1.08145L4.70307 1.26607C4.80719 1.37392 4.93828 1.45194 5.08272 1.49203C5.22716 1.53213 5.3797 1.53284 5.52452 1.49409C5.66933 1.45535 5.80113 1.37855 5.90625 1.27168C6.01137 1.16481 6.08598 1.03176 6.12232 0.886324L6.18445 0.636074V0.636074ZM11.3513 7.43745H7.2187L4.73895 10.7441C5.37059 11.1256 6.0885 11.3411 6.82583 11.3704C7.56316 11.3998 8.29593 11.2421 8.95593 10.9121C9.61592 10.5821 10.1817 10.0904 10.6005 9.48285C11.0193 8.87531 11.2776 8.17167 11.3513 7.43745ZM11.3513 6.56245C11.2776 5.82822 11.0193 5.12459 10.6005 4.51705C10.1817 3.90952 9.61592 3.41784 8.95593 3.0878C8.29593 2.75776 7.56316 2.60009 6.82583 2.62947C6.0885 2.65884 5.37059 2.87432 4.73895 3.25582L7.2187 6.56332H11.3513V6.56245ZM4.41695 3.47107C4.3907 3.48945 4.3662 3.5087 4.34082 3.52795L4.41695 3.47107ZM4.03982 3.7817C3.59389 4.19074 3.23797 4.6881 2.99468 5.24215C2.7514 5.79621 2.62608 6.39483 2.6267 6.99995C2.6267 8.27307 3.17095 9.41932 4.03982 10.2182L6.45307 6.99995L4.03982 3.7817ZM4.34082 10.4719L4.41695 10.5288L4.34082 10.4719Z" fill="#122841"/>
</g>
<defs>
<clipPath id="clip0_31_17536">
<rect width="14" height="14" fill="white"/>
</clipPath>
</defs>
</svg>
