<svg width="16" height="16" viewBox="0 0 16 16" fill="none" xmlns="http://www.w3.org/2000/svg">
<path d="M5.49976 5.5C5.63236 5.5 5.75954 5.55268 5.85331 5.64645C5.94708 5.74021 5.99976 5.86739 5.99976 6V12C5.99976 12.1326 5.94708 12.2598 5.85331 12.3536C5.75954 12.4473 5.63236 12.5 5.49976 12.5C5.36715 12.5 5.23997 12.4473 5.1462 12.3536C5.05243 12.2598 4.99976 12.1326 4.99976 12V6C4.99976 5.86739 5.05243 5.74021 5.1462 5.64645C5.23997 5.55268 5.36715 5.5 5.49976 5.5ZM7.99976 5.5C8.13236 5.5 8.25954 5.55268 8.35331 5.64645C8.44708 5.74021 8.49976 5.86739 8.49976 6V12C8.49976 12.1326 8.44708 12.2598 8.35331 12.3536C8.25954 12.4473 8.13236 12.5 7.99976 12.5C7.86715 12.5 7.73997 12.4473 7.6462 12.3536C7.55243 12.2598 7.49976 12.1326 7.49976 12V6C7.49976 5.86739 7.55243 5.74021 7.6462 5.64645C7.73997 5.55268 7.86715 5.5 7.99976 5.5ZM10.9998 6C10.9998 5.86739 10.9471 5.74021 10.8533 5.64645C10.7595 5.55268 10.6324 5.5 10.4998 5.5C10.3671 5.5 10.24 5.55268 10.1462 5.64645C10.0524 5.74021 9.99976 5.86739 9.99976 6V12C9.99976 12.1326 10.0524 12.2598 10.1462 12.3536C10.24 12.4473 10.3671 12.5 10.4998 12.5C10.6324 12.5 10.7595 12.4473 10.8533 12.3536C10.9471 12.2598 10.9998 12.1326 10.9998 12V6Z" fill="#E55E5E"/>
<path fill-rule="evenodd" clip-rule="evenodd" d="M14.4998 3C14.4998 3.26522 14.3944 3.51957 14.2069 3.70711C14.0193 3.89464 13.765 4 13.4998 4H12.9998V13C12.9998 13.5304 12.789 14.0391 12.414 14.4142C12.0389 14.7893 11.5302 15 10.9998 15H4.99976C4.46932 15 3.96061 14.7893 3.58554 14.4142C3.21047 14.0391 2.99976 13.5304 2.99976 13V4H2.49976C2.23454 4 1.98019 3.89464 1.79265 3.70711C1.60511 3.51957 1.49976 3.26522 1.49976 3V2C1.49976 1.73478 1.60511 1.48043 1.79265 1.29289C1.98019 1.10536 2.23454 1 2.49976 1H5.99976C5.99976 0.734784 6.10511 0.48043 6.29265 0.292893C6.48019 0.105357 6.73454 0 6.99976 0H8.99976C9.26497 0 9.51933 0.105357 9.70686 0.292893C9.8944 0.48043 9.99976 0.734784 9.99976 1H13.4998C13.765 1 14.0193 1.10536 14.2069 1.29289C14.3944 1.48043 14.4998 1.73478 14.4998 2V3ZM4.11776 4L3.99976 4.059V13C3.99976 13.2652 4.10511 13.5196 4.29265 13.7071C4.48019 13.8946 4.73454 14 4.99976 14H10.9998C11.265 14 11.5193 13.8946 11.7069 13.7071C11.8944 13.5196 11.9998 13.2652 11.9998 13V4.059L11.8818 4H4.11776ZM2.49976 3V2H13.4998V3H2.49976Z" fill="#E55E5E"/>
</svg>
