<svg width="14" height="14" viewBox="0 0 14 14" fill="none" xmlns="http://www.w3.org/2000/svg">
<g clip-path="url(#clip0_31_17511)">
<path d="M0.4375 8.66255C0.553532 8.66255 0.664812 8.70864 0.746859 8.79069C0.828906 8.87274 0.875 8.98402 0.875 9.10005V11.2875C0.875 11.5196 0.967187 11.7422 1.13128 11.9063C1.29538 12.0704 1.51794 12.1625 1.75 12.1625H12.25C12.4821 12.1625 12.7046 12.0704 12.8687 11.9063C13.0328 11.7422 13.125 11.5196 13.125 11.2875V9.10005C13.125 8.98402 13.1711 8.87274 13.2531 8.79069C13.3352 8.70864 13.4465 8.66255 13.5625 8.66255C13.6785 8.66255 13.7898 8.70864 13.8719 8.79069C13.9539 8.87274 14 8.98402 14 9.10005V11.2875C14 11.7517 13.8156 12.1968 13.4874 12.525C13.1592 12.8532 12.7141 13.0375 12.25 13.0375H1.75C1.28587 13.0375 0.840752 12.8532 0.512563 12.525C0.184374 12.1968 0 11.7517 0 11.2875V9.10005C0 8.98402 0.0460936 8.87274 0.128141 8.79069C0.210188 8.70864 0.321468 8.66255 0.4375 8.66255Z" fill="#122841"/>
<path d="M6.69025 1.0028C6.73089 0.962057 6.77917 0.929732 6.83232 0.907676C6.88547 0.885621 6.94245 0.874268 7 0.874268C7.05755 0.874268 7.11453 0.885621 7.16768 0.907676C7.22083 0.929732 7.26911 0.962057 7.30975 1.0028L9.93475 3.6278C10.0169 3.70995 10.0631 3.82137 10.0631 3.93755C10.0631 4.05373 10.0169 4.16515 9.93475 4.2473C9.8526 4.32945 9.74118 4.3756 9.625 4.3756C9.50882 4.3756 9.3974 4.32945 9.31525 4.2473L7.4375 2.36867V10.0625C7.4375 10.1786 7.39141 10.2899 7.30936 10.3719C7.22731 10.454 7.11603 10.5 7 10.5C6.88397 10.5 6.77269 10.454 6.69064 10.3719C6.60859 10.2899 6.5625 10.1786 6.5625 10.0625V2.36867L4.68475 4.2473C4.64407 4.28798 4.59578 4.32024 4.54264 4.34226C4.48949 4.36427 4.43253 4.3756 4.375 4.3756C4.31747 4.3756 4.26051 4.36427 4.20736 4.34226C4.15422 4.32024 4.10593 4.28798 4.06525 4.2473C4.02457 4.20662 3.99231 4.15833 3.97029 4.10519C3.94828 4.05204 3.93695 3.99508 3.93695 3.93755C3.93695 3.88002 3.94828 3.82306 3.97029 3.76991C3.99231 3.71677 4.02457 3.66848 4.06525 3.6278L6.69025 1.0028Z" fill="#122841"/>
</g>
<defs>
<clipPath id="clip0_31_17511">
<rect width="14" height="14" fill="white"/>
</clipPath>
</defs>
</svg>
