<svg width="14" height="14" viewBox="0 0 14 14" fill="none" xmlns="http://www.w3.org/2000/svg">
<g clip-path="url(#clip0_141_17546)">
<path fill-rule="evenodd" clip-rule="evenodd" d="M7 0C5.84521 0.0036212 4.7298 0.420118 3.85525 1.17425C3.185 1.75175 2.69937 2.50425 2.57425 3.25937C1.10775 3.58312 0 4.86062 0 6.40325C0 8.19525 1.4945 9.625 3.30837 9.625H6.5625V4.99362L4.68475 6.87225C4.6026 6.9544 4.49118 7.00055 4.375 7.00055C4.25882 7.00055 4.1474 6.9544 4.06525 6.87225C3.9831 6.7901 3.93695 6.67868 3.93695 6.5625C3.93695 6.44632 3.9831 6.3349 4.06525 6.25275L6.69025 3.62775C6.73089 3.58701 6.77917 3.55468 6.83232 3.53263C6.88547 3.51057 6.94245 3.49922 7 3.49922C7.05755 3.49922 7.11453 3.51057 7.16768 3.53263C7.22083 3.55468 7.26911 3.58701 7.30975 3.62775L9.93475 6.25275C10.0169 6.3349 10.0631 6.44632 10.0631 6.5625C10.0631 6.67868 10.0169 6.7901 9.93475 6.87225C9.8526 6.9544 9.74118 7.00055 9.625 7.00055C9.50882 7.00055 9.3974 6.9544 9.31525 6.87225L7.4375 4.99362V9.625H11.102C12.6892 9.625 14 8.37375 14 6.80137C14 5.36987 12.9133 4.2035 11.5203 4.00662C11.3076 1.74913 9.35375 0 7 0ZM6.5625 12.6875V9.625H7.4375V12.6875C7.4375 12.8035 7.39141 12.9148 7.30936 12.9969C7.22731 13.0789 7.11603 13.125 7 13.125C6.88397 13.125 6.77269 13.0789 6.69064 12.9969C6.60859 12.9148 6.5625 12.8035 6.5625 12.6875Z" fill="#122841"/>
</g>
<defs>
<clipPath id="clip0_141_17546">
<rect width="14" height="14" fill="white"/>
</clipPath>
</defs>
</svg>
